<?xml version="1.0" encoding="UTF-8" standalone="no"?><!DOCTYPE svg PUBLIC "-//W3C//DTD SVG 1.1//EN" "http://www.w3.org/Graphics/SVG/1.1/DTD/svg11.dtd"><svg width="100%" height="100%" viewBox="0 0 1447 207" version="1.1" xmlns="http://www.w3.org/2000/svg" xmlns:xlink="http://www.w3.org/1999/xlink" xml:space="preserve" xmlns:serif="http://www.serif.com/" style="fill-rule:evenodd;clip-rule:evenodd;stroke-linejoin:round;stroke-miterlimit:2;"><g><path d="M164.533,4l0,198.933l-46.4,0l-53.066,-95.733l-0.267,0l0,-0.8l-26.4,-47.733l0,144.266l-38.4,0l0,-198.933l46.4,0l52.8,95.733l0.533,0l0,1.067l26.4,47.733l0,-144.533l38.4,0Z" style="fill:#fff;fill-rule:nonzero;"/><path d="M316.333,142.933l-102.4,0c1.423,10.667 5.334,18.934 11.734,24.8c6.4,5.867 14.755,8.8 25.066,8.8c7.467,0 13.778,-1.511 18.934,-4.533c5.155,-3.022 8.889,-7.378 11.2,-13.067l33.6,0c-1.423,7.111 -4.045,13.645 -7.867,19.6c-3.822,5.956 -8.578,11.023 -14.267,15.2c-5.689,4.178 -12.177,7.423 -19.466,9.734c-7.289,2.311 -15.2,3.466 -23.734,3.466c-10.311,0 -19.733,-1.777 -28.266,-5.333c-8.534,-3.556 -15.823,-8.533 -21.867,-14.933c-6.044,-6.4 -10.756,-14.089 -14.133,-23.067c-3.378,-8.978 -5.067,-18.978 -5.067,-30c0,-11.022 1.644,-21.022 4.933,-30c3.289,-8.978 7.911,-16.667 13.867,-23.067c5.956,-6.4 13.156,-11.377 21.6,-14.933c8.444,-3.556 17.733,-5.333 27.867,-5.333c10.133,-0 19.422,1.777 27.866,5.333c8.445,3.556 15.645,8.533 21.6,14.933c5.956,6.4 10.578,14.089 13.867,23.067c3.289,8.978 4.933,18.978 4.933,30l0,9.333Zm-68.266,-52.266c-9.423,-0 -17.023,2.711 -22.8,8.133c-5.778,5.422 -9.467,13.2 -11.067,23.333l67.467,0c-1.6,-10.133 -5.289,-17.911 -11.067,-23.333c-5.778,-5.422 -13.289,-8.133 -22.533,-8.133Z" style="fill:#fff;fill-rule:nonzero;"/><path d="M466.733,142.933l-102.4,0c1.423,10.667 5.334,18.934 11.734,24.8c6.4,5.867 14.755,8.8 25.066,8.8c7.467,0 13.778,-1.511 18.934,-4.533c5.155,-3.022 8.889,-7.378 11.2,-13.067l33.6,0c-1.423,7.111 -4.045,13.645 -7.867,19.6c-3.822,5.956 -8.578,11.023 -14.267,15.2c-5.689,4.178 -12.177,7.423 -19.466,9.734c-7.289,2.311 -15.2,3.466 -23.734,3.466c-10.311,0 -19.733,-1.777 -28.266,-5.333c-8.534,-3.556 -15.823,-8.533 -21.867,-14.933c-6.044,-6.4 -10.756,-14.089 -14.133,-23.067c-3.378,-8.978 -5.067,-18.978 -5.067,-30c0,-11.022 1.644,-21.022 4.933,-30c3.289,-8.978 7.911,-16.667 13.867,-23.067c5.956,-6.4 13.156,-11.377 21.6,-14.933c8.444,-3.556 17.733,-5.333 27.867,-5.333c10.133,-0 19.422,1.777 27.866,5.333c8.445,3.556 15.645,8.533 21.6,14.933c5.956,6.4 10.578,14.089 13.867,23.067c3.289,8.978 4.933,18.978 4.933,30l0,9.333Zm-68.266,-52.266c-9.423,-0 -17.023,2.711 -22.8,8.133c-5.778,5.422 -9.467,13.2 -11.067,23.333l67.467,0c-1.6,-10.133 -5.289,-17.911 -11.067,-23.333c-5.778,-5.422 -13.289,-8.133 -22.533,-8.133Z" style="fill:#fff;fill-rule:nonzero;"/><path d="M618.2,4l0,198.933l-35.733,0l-0,-17.6l-2.4,0c-4.089,6.578 -9.467,11.823 -16.134,15.734c-6.666,3.911 -14.711,5.866 -24.133,5.866c-8.711,0 -16.667,-1.777 -23.867,-5.333c-7.2,-3.556 -13.422,-8.533 -18.666,-14.933c-5.245,-6.4 -9.334,-14.089 -12.267,-23.067c-2.933,-8.978 -4.4,-18.978 -4.4,-30c0,-11.022 1.422,-21.022 4.267,-30c2.844,-8.978 6.889,-16.667 12.133,-23.067c5.244,-6.4 11.511,-11.377 18.8,-14.933c7.289,-3.556 15.289,-5.333 24,-5.333c9.067,-0 16.933,1.866 23.6,5.6c6.667,3.733 11.956,8.711 15.867,14.933l3.2,0l-0,-76.8l35.733,0Zm-68.533,169.067c9.955,-0 17.866,-3.6 23.733,-10.8c5.867,-7.2 8.8,-16.756 8.8,-28.667c0,-11.911 -2.933,-21.467 -8.8,-28.667c-5.867,-7.2 -13.778,-10.8 -23.733,-10.8c-9.6,0 -17.378,3.6 -23.334,10.8c-5.955,7.2 -8.933,16.756 -8.933,28.667c0,11.911 2.978,21.467 8.933,28.667c5.956,7.2 13.734,10.8 23.334,10.8Z" style="fill:#fff;fill-rule:nonzero;"/><path d="M768.6,164l-82.4,0l-13.067,38.933l-40.533,0l72.533,-198.933l44.534,0l72.533,198.933l-40.533,0l-13.067,-38.933Zm-11.733,-33.867l-27.734,-82.933l-3.466,0l-27.734,82.933l58.934,0Z" style="fill:#fff;fill-rule:nonzero;"/><path d="M913.808,60.267c7.267,-0 13.87,1.2 19.809,3.6c5.939,2.4 11.035,5.777 15.289,10.133c4.254,4.356 7.534,9.6 9.838,15.733c2.304,6.134 3.456,12.934 3.456,20.4l0,92.8l-36,0l0,-77.866c0,-8.889 -2.311,-15.956 -6.933,-21.2c-4.623,-5.245 -10.934,-7.867 -18.934,-7.867c-8.355,0 -15.022,3.022 -20,9.067c-4.977,6.044 -7.466,14.044 -7.466,24l-0,73.866l-36,0l-0,-138.666l33.866,-0l0,19.733l2.925,0c3.9,-7.289 9.44,-13.067 16.619,-17.333c7.179,-4.267 15.023,-6.4 23.531,-6.4Z" style="fill:#fff;fill-rule:nonzero;"/><path d="M1010.47,44.533c-6.223,0 -11.511,-2.177 -15.867,-6.533c-4.356,-4.356 -6.533,-9.556 -6.533,-15.6c-0,-6.222 2.177,-11.511 6.533,-15.867c4.356,-4.355 9.644,-6.533 15.867,-6.533c6.222,0 11.511,2.178 15.866,6.533c4.356,4.356 6.534,9.645 6.534,15.867c-0,6.044 -2.178,11.244 -6.534,15.6c-4.355,4.356 -9.644,6.533 -15.866,6.533Zm-13.6,51.467l-24.639,0l0,-31.733l60.639,-0l-0,138.666l-36,0l-0,-106.933Z" style="fill:#fff;fill-rule:nonzero;"/><path d="M1243.01,60.267c7.278,-0 13.934,1.2 19.969,3.6c6.035,2.4 11.183,5.777 15.444,10.133c4.261,4.356 7.589,9.6 9.985,15.733c2.396,6.134 3.594,12.934 3.594,20.4l0,92.8l-36,0l0,-77.866c0,-8.889 -2.278,-15.956 -6.835,-21.2c-4.557,-5.245 -10.679,-7.867 -18.365,-7.867c-7.683,0 -13.893,2.756 -18.629,8.267c-4.736,5.511 -7.104,12.8 -7.104,21.866l-0,76.8l-36,0l-0,-77.866c-0,-8.889 -2.223,-15.956 -6.667,-21.2c-4.444,-5.245 -10.4,-7.867 -17.867,-7.867c-8,0 -14.355,3.022 -19.066,9.067c-4.711,6.044 -7.067,14.044 -7.067,24l0,73.866l-36,0l0,-106.933l-24.767,0l0,-31.733l58.634,-0l-0,19.733l2.929,0c3.728,-7.289 9.008,-13.067 15.842,-17.333c6.833,-4.267 14.511,-6.4 23.033,-6.4c9.408,-0 17.662,2.089 24.762,6.266c7.1,4.178 12.603,10 16.509,17.467l2.929,0c3.728,-7.289 9.186,-13.067 16.375,-17.333c7.189,-4.267 15.31,-6.4 24.362,-6.4Z" style="fill:#fff;fill-rule:nonzero;"/><path d="M1446.93,142.933l-102.4,0c1.423,10.667 5.334,18.934 11.734,24.8c6.4,5.867 14.755,8.8 25.066,8.8c7.467,0 13.778,-1.511 18.934,-4.533c5.155,-3.022 8.889,-7.378 11.2,-13.067l33.6,0c-1.423,7.111 -4.045,13.645 -7.867,19.6c-3.822,5.956 -8.578,11.023 -14.267,15.2c-5.689,4.178 -12.177,7.423 -19.466,9.734c-7.289,2.311 -15.2,3.466 -23.734,3.466c-10.311,0 -19.733,-1.777 -28.266,-5.333c-8.534,-3.556 -15.823,-8.533 -21.867,-14.933c-6.044,-6.4 -10.756,-14.089 -14.133,-23.067c-3.378,-8.978 -5.067,-18.978 -5.067,-30c0,-11.022 1.644,-21.022 4.933,-30c3.289,-8.978 7.911,-16.667 13.867,-23.067c5.956,-6.4 13.156,-11.377 21.6,-14.933c8.444,-3.556 17.733,-5.333 27.867,-5.333c10.133,-0 19.422,1.777 27.866,5.333c8.445,3.556 15.645,8.533 21.6,14.933c5.956,6.4 10.578,14.089 13.867,23.067c3.289,8.978 4.933,18.978 4.933,30l0,9.333Zm-68.266,-52.266c-9.423,-0 -17.023,2.711 -22.8,8.133c-5.778,5.422 -9.467,13.2 -11.067,23.333l67.467,0c-1.6,-10.133 -5.289,-17.911 -11.067,-23.333c-5.778,-5.422 -13.289,-8.133 -22.533,-8.133Z" style="fill:#fff;fill-rule:nonzero;"/><path d="M1057.63,204.933c-2.094,0 -4.084,-0.392 -5.968,-1.178c-1.885,-0.785 -3.535,-1.885 -4.948,-3.298c-1.414,-1.414 -2.54,-3.063 -3.377,-4.948c-0.838,-1.885 -1.257,-3.875 -1.257,-5.969c-0,-2.094 0.419,-4.11 1.257,-6.047c0.837,-1.938 1.963,-3.613 3.377,-5.027c1.413,-1.413 3.063,-2.539 4.948,-3.377c1.884,-0.838 3.874,-1.256 5.968,-1.256c2.095,-0 4.084,0.418 5.969,1.256c1.885,0.838 3.534,1.964 4.948,3.377c1.414,1.414 2.539,3.089 3.377,5.027c0.838,1.937 1.257,3.953 1.257,6.047c-0,2.094 -0.419,4.084 -1.257,5.969c-0.838,1.885 -1.963,3.534 -3.377,4.948c-1.414,1.413 -3.063,2.513 -4.948,3.298c-1.885,0.786 -3.874,1.178 -5.969,1.178Z" style="fill:#F30175;fill-rule:nonzero;"/></g></svg>